<svg xmlns="http://www.w3.org/2000/svg" width="117.978" height="78.927" viewBox="0 0 117.978 78.927">
  <g id="_2030" data-name="2030" transform="translate(0)">
    <path id="Path_61668" data-name="Path 61668" d="M84.114,44.814V44.9c0,5.693-4.148,9.876-10.89,9.876a14.688,14.688,0,0,1-11.8-5.219L66.009,45.2c2.074,2.33,4.235,3.623,7.3,3.623,2.506,0,4.278-1.423,4.278-3.666-.033-.059.489-3.924-5.92-3.924H68.9l-1.038-4.227,9.7-9.742-3.889,2.5H63.2V24.07H83.638v5L75.99,36.361c4.1.69,8.124,2.846,8.124,8.453M65.144,10.265a4.731,4.731,0,0,1,4.719-4.933h3.1l-.813.4c.037,7.492-.149,8.435.331,9.53H69.9A4.788,4.788,0,0,1,65.144,10.3Zm4.719,6.257H72.62v-.991a1.916,1.916,0,0,0,.87.808c.877.416.24.155,25.39.232V4.078H97.554V15.247s-23,.089-23.434-.108a1.156,1.156,0,0,1-.58-.976c-.1-.675-.039-.687-.058-10.085H69.9A6.1,6.1,0,0,0,63.732,10.3v.034a6.044,6.044,0,0,0,6.131,6.188M108.657,2.753H105.75c.063-.961-.382-2.753,1.576-2.753h.936V.923c-.906.067-1.428-.221-1.428.5v.306h1.822Zm3.359,13.953a4.067,4.067,0,0,1-1.078-.149l.348-1.274c.6.171,1.367.181,1.683-.356.369-.635.237-.859.257-10.849h1.326c-.038,9.326.092,9.586-.124,10.667a2.215,2.215,0,0,1-2.413,1.961M73.482,2.753H72.155V1.429h1.327Zm29.2,4.569a3.675,3.675,0,0,1,3.265-1.9v0h2.143l-.757.378v5.946a9.04,9.04,0,0,1-2.745-.208,2.945,2.945,0,0,1-2.214-2.9,2.808,2.808,0,0,1,.307-1.307m0,4.692a7.362,7.362,0,0,0,4.205,1.051l.446-.934c-.072.906.249,2.171-.6,2.8a3.736,3.736,0,0,1-2.778.331,6.443,6.443,0,0,1-1.12-.4l-.414,1.274a7.236,7.236,0,0,0,2.537.562,3.759,3.759,0,0,0,2.819-.918,3.433,3.433,0,0,0,.879-2.475V4.078c-1.633.051-2.871-.165-4.361.348-3.993,1.373-4.072,5.84-1.617,7.589M70.828,2.753H69.5V1.429h1.327ZM57.1,4.063h1.37V16.5H57.345L48.522,5.313l.78,1.812V16.5h-1.37V4.063h1.317l8.425,10.7L57.1,13.234V4.063M5.357,16.585,0,4.063H1.567L6.349,15.621l-.136-1.366L10.447,4.063h1.512L6.6,16.585ZM29.095,4.063H30.5V16.5H29.095Zm15.077,6.252a4.888,4.888,0,0,1-4.875,5.1,4.947,4.947,0,0,1-4.912-5.132v-.036a4.888,4.888,0,0,1,4.876-5.1,4.947,4.947,0,0,1,4.911,5.133ZM39.3,3.85a6.3,6.3,0,0,0-6.371,6.43v.035a6.353,6.353,0,1,0,12.706-.035v-.036A6.246,6.246,0,0,0,39.3,3.85M26.775,13.122v.035c0,2.131-1.78,3.517-4.253,3.517a7.294,7.294,0,0,1-5.089-1.989l.872-1.03a5.939,5.939,0,0,0,4.271,1.758c1.673,0,2.775-.887,2.775-2.113v-.035c0-3.47-7.42-1.181-7.42-5.95V7.278c0-1.954,1.726-3.393,4.093-3.393A6.506,6.506,0,0,1,26.4,5.414L25.584,6.5c-2.824-2.3-6.247-1.417-6.247.658V7.19c0,1.172.64,1.829,3.381,2.415,2.776.6,4.057,1.617,4.057,3.517M15.274,16.5H13.869V4.064h1.406Zm81.816,1.4h1.327v1.324H97.09Zm-2.654,0h1.327v1.324H94.437ZM11.125,48.522H22.659v5.737H.275V49c11.184-9.492,15.3-11.347,15.3-15.483A3.707,3.707,0,0,0,11.51,29.59c-2.334,0-3.932,1.293-6.179,4.053L.664,29.892c2.982-4.054,5.877-6.254,11.278-6.254,6.266,0,10.414,3.666,10.414,9.316v.086c0,7.085-5.364,9.369-14.561,16.781l-1.284.989Zm99.9-9.272c0,5.175-3.716,9.4-9.075,9.4a9.18,9.18,0,0,1-9.161-9.489v-.086c0-5.175,3.717-9.4,9.074-9.4a9.181,9.181,0,0,1,9.161,9.488Zm-9.075-15.7c-9.333,0-16.118,7.03-16.118,15.612v.087c0,8.583,6.7,15.526,16.031,15.526s16.118-7.03,16.118-15.613v-.086c0-8.582-6.7-15.525-16.031-15.525" transform="translate(0)" fill="#ada9ae"/>
    <path id="Path_61669" data-name="Path 61669" d="M67.516,36.272l1.532,1.467-1.47,1.529L66.047,37.8" transform="translate(-26.777 -14.706)" fill="#29367b"/>
    <path id="Path_61670" data-name="Path 61670" d="M74.416,37.8l1.531,1.467,1.47-1.529-1.532-1.467" transform="translate(-30.17 -14.706)" fill="#b1aeb3"/>
    <path id="Path_61671" data-name="Path 61671" d="M70.788,41.272l1.193,1.142,1.144-1.19-1.192-1.142" transform="translate(-28.699 -16.25)" fill="#d0da33"/>
    <path id="Path_61672" data-name="Path 61672" d="M78.143,42.371l1.193,1.143,1.144-1.19-1.193-1.143" transform="translate(-31.681 -16.696)" fill="#71ba44"/>
    <path id="Path_61673" data-name="Path 61673" d="M67.508,44.333,68.7,45.476l1.144-1.19-1.192-1.143" transform="translate(-27.37 -17.491)" fill="#d0da33"/>
    <path id="Path_61674" data-name="Path 61674" d="M74.239,44.566l1.192,1.143,1.145-1.19-1.193-1.143" transform="translate(-30.098 -17.586)" fill="#27b8be"/>
    <path id="Path_61675" data-name="Path 61675" d="M71.606,47.109l.839.8.805-.838-.839-.8" transform="translate(-29.031 -18.76)" fill="#71ba44"/>
    <path id="Path_61676" data-name="Path 61676" d="M76.929,48.171l.839.8.806-.838-.839-.8" transform="translate(-31.189 -19.19)" fill="#58b75e"/>
    <rect id="Rectangle_3583" data-name="Rectangle 3583" width="2.646" height="2.641" transform="translate(52.651 22.611) rotate(-10.396)" fill="#3088c8"/>
    <rect id="Rectangle_3584" data-name="Rectangle 3584" width="2.123" height="2.119" transform="matrix(0.984, -0.18, 0.18, 0.984, 49.255, 23.7)" fill="#1e3871"/>
    <rect id="Rectangle_3585" data-name="Rectangle 3585" width="2.122" height="2.119" transform="translate(53.291 26.604) rotate(-10.394)" fill="#27b8be"/>
    <rect id="Rectangle_3586" data-name="Rectangle 3586" width="1.653" height="1.65" transform="matrix(0.984, -0.18, 0.18, 0.984, 50.412, 26.909)" fill="#d0da33"/>
    <rect id="Rectangle_3587" data-name="Rectangle 3587" width="1.653" height="1.65" transform="matrix(0.984, -0.18, 0.18, 0.984, 53.575, 29.992)" fill="#b1aeb3"/>
    <rect id="Rectangle_3588" data-name="Rectangle 3588" width="1.654" height="1.65" transform="translate(47.976 27.569) rotate(-10.38)" fill="#27b8be"/>
    <rect id="Rectangle_3589" data-name="Rectangle 3589" width="1.653" height="1.65" transform="matrix(0.984, -0.18, 0.18, 0.984, 50.927, 29.695)" fill="#71ba44"/>
    <rect id="Rectangle_3590" data-name="Rectangle 3590" width="1.163" height="1.161" transform="translate(48.855 29.891) rotate(-10.396)" fill="#b1aeb3"/>
    <rect id="Rectangle_3591" data-name="Rectangle 3591" width="1.162" height="1.16" transform="translate(51.052 32.251) rotate(-10.373)" fill="#58b75e"/>
    <path id="Path_61677" data-name="Path 61677" d="M100.8,52.342,99.66,54.727l2.39,1.134,1.136-2.385" transform="translate(-40.405 -21.221)" fill="#29367b"/>
    <path id="Path_61678" data-name="Path 61678" d="M95.246,50.489,94.334,52.4l1.917.91.912-1.913" transform="translate(-38.246 -20.469)" fill="#27b8be"/>
    <path id="Path_61679" data-name="Path 61679" d="M97.884,58.416l-.912,1.914,1.917.91.912-1.913" transform="translate(-39.315 -23.683)" fill="#71ba44"/>
    <path id="Path_61680" data-name="Path 61680" d="M93.8,56l-.71,1.49,1.493.709.711-1.49" transform="translate(-37.74 -22.705)" fill="#d0da33"/>
    <path id="Path_61681" data-name="Path 61681" d="M95.071,63.315l-.711,1.49,1.492.709.711-1.49" transform="translate(-38.256 -25.67)" fill="#d0da33"/>
    <path id="Path_61682" data-name="Path 61682" d="M89.822,54.51,89.112,56l1.493.709.711-1.49" transform="translate(-36.128 -22.1)" fill="#3088c8"/>
    <path id="Path_61683" data-name="Path 61683" d="M91.753,60.308l-.711,1.49,1.492.709.711-1.49" transform="translate(-36.911 -24.45)" fill="#b1aeb3"/>
    <path id="Path_61684" data-name="Path 61684" d="M88.877,58.541l-.5,1.048,1.05.5.5-1.048" transform="translate(-35.83 -23.734)" fill="#71ba44"/>
    <rect id="Rectangle_3592" data-name="Rectangle 3592" width="1.161" height="1.162" transform="translate(52.943 39.047) rotate(-64.551)" fill="#27b8be"/>
    <path id="Path_61685" data-name="Path 61685" d="M102.156,71.551l-2.32,1.27,1.273,2.316,2.32-1.27" transform="translate(-40.476 -29.009)" fill="#3088c8"/>
    <path id="Path_61686" data-name="Path 61686" d="M98.93,66.717l-1.861,1.019,1.021,1.857,1.861-1.019" transform="translate(-39.354 -27.049)" fill="#27b8be"/>
    <path id="Path_61687" data-name="Path 61687" d="M96.422,74.686,94.561,75.7l1.021,1.858,1.861-1.019" transform="translate(-38.338 -30.28)" fill="#27b8be"/>
    <path id="Path_61688" data-name="Path 61688" d="M94.692,70.261l-1.449.794.794,1.446,1.45-.793" transform="translate(-37.803 -28.486)" fill="#29367b"/>
    <path id="Path_61689" data-name="Path 61689" d="M91.438,76.936l-1.45.794.795,1.446,1.45-.793" transform="translate(-36.484 -31.192)" fill="#58b75e"/>
    <path id="Path_61690" data-name="Path 61690" d="M92.343,66.731l-1.45.793.795,1.447,1.45-.794" transform="translate(-36.851 -27.054)" fill="#1e3871"/>
    <path id="Path_61691" data-name="Path 61691" d="M90.51,72.56l-1.45.794.795,1.446,1.45-.793" transform="translate(-36.108 -29.418)" fill="#d0da33"/>
    <path id="Path_61692" data-name="Path 61692" d="M89.389,69.364l-1.02.558.559,1.017,1.019-.558" transform="translate(-35.828 -28.122)" fill="#b1aeb3"/>
    <path id="Path_61693" data-name="Path 61693" d="M86.78,74.114l-1.02.558.559,1.017,1.02-.558" transform="translate(-34.77 -30.048)" fill="#27b8be"/>
    <rect id="Rectangle_3593" data-name="Rectangle 3593" width="2.642" height="2.646" transform="translate(53.075 54.844) rotate(-82.953)" fill="#71ba44"/>
    <rect id="Rectangle_3594" data-name="Rectangle 3594" width="2.119" height="2.123" transform="matrix(0.123, -0.992, 0.992, 0.123, 53.642, 50.84)" fill="#1e3871"/>
    <rect id="Rectangle_3595" data-name="Rectangle 3595" width="2.119" height="2.123" transform="matrix(0.123, -0.992, 0.992, 0.123, 49.654, 53.813)" fill="#27b8be"/>
    <rect id="Rectangle_3596" data-name="Rectangle 3596" width="1.65" height="1.653" transform="translate(50.752 50.578) rotate(-82.962)" fill="#71ba44"/>
    <rect id="Rectangle_3597" data-name="Rectangle 3597" width="1.65" height="1.653" transform="translate(46.855 52.665) rotate(-82.962)" fill="#b1aeb3"/>
    <rect id="Rectangle_3598" data-name="Rectangle 3598" width="1.651" height="1.654" transform="translate(50.848 48.056) rotate(-82.944)" fill="#b1aeb3"/>
    <rect id="Rectangle_3599" data-name="Rectangle 3599" width="1.65" height="1.654" transform="translate(47.933 50.228) rotate(-82.942)" fill="#71ba44"/>
    <rect id="Rectangle_3600" data-name="Rectangle 3600" width="1.16" height="1.162" transform="matrix(0.123, -0.992, 0.992, 0.123, 48.914, 47.775)" fill="#b1aeb3"/>
    <rect id="Rectangle_3601" data-name="Rectangle 3601" width="1.16" height="1.163" transform="matrix(0.123, -0.992, 0.992, 0.123, 45.997, 49.158)" fill="#b1aeb3"/>
    <path id="Path_61694" data-name="Path 61694" d="M74.1,95.276l-1.939-1.8-1.8,1.936,1.939,1.8" transform="translate(-28.527 -37.899)" fill="#d0da33"/>
    <path id="Path_61695" data-name="Path 61695" d="M73.5,33.053l-1.939-1.8-1.8,1.936,1.939,1.8" transform="translate(-28.283 -12.672)" fill="#71ba44"/>
    <path id="Path_61696" data-name="Path 61696" d="M78.088,90.641,76.532,89.2l-1.444,1.553,1.556,1.441" transform="translate(-30.443 -36.164)" fill="#27b8be"/>
    <path id="Path_61697" data-name="Path 61697" d="M69.72,90.78l-1.557-1.442-1.444,1.553,1.556,1.441" transform="translate(-27.05 -36.22)" fill="#71ba44"/>
    <path id="Path_61698" data-name="Path 61698" d="M73.745,87.7l-1.212-1.123-1.124,1.209,1.211,1.123" transform="translate(-28.951 -35.1)" fill="#3088c8"/>
    <path id="Path_61699" data-name="Path 61699" d="M66.373,86.72,65.162,85.6l-1.124,1.209,1.212,1.123" transform="translate(-25.963 -34.704)" fill="#d0da33"/>
    <path id="Path_61700" data-name="Path 61700" d="M76.362,84.36,75.15,83.238l-1.124,1.209,1.211,1.123" transform="translate(-30.012 -33.747)" fill="#d0da33"/>
    <path id="Path_61701" data-name="Path 61701" d="M70.241,84.461l-1.212-1.123L67.9,84.547l1.211,1.123" transform="translate(-27.53 -33.788)" fill="#b1aeb3"/>
    <path id="Path_61702" data-name="Path 61702" d="M73.307,82.342l-.852-.79-.791.851.852.79" transform="translate(-29.054 -33.063)" fill="#1e3871"/>
    <path id="Path_61703" data-name="Path 61703" d="M67.967,81.368l-.852-.79-.791.85.852.79" transform="translate(-26.889 -32.669)" fill="#b1aeb3"/>
    <rect id="Rectangle_3602" data-name="Rectangle 3602" width="2.646" height="2.641" transform="translate(31.158 53.112) rotate(-11.338)" fill="#3088c8"/>
    <rect id="Rectangle_3603" data-name="Rectangle 3603" width="2.123" height="2.119" transform="translate(35.152 52.377) rotate(-11.341)" fill="#27b8be"/>
    <rect id="Rectangle_3604" data-name="Rectangle 3604" width="2.122" height="2.119" transform="translate(31.071 49.538) rotate(-11.341)" fill="#71ba44"/>
    <rect id="Rectangle_3605" data-name="Rectangle 3605" width="1.653" height="1.65" transform="matrix(0.981, -0.196, 0.196, 0.981, 34.495, 49.555)" fill="#d0da33"/>
    <rect id="Rectangle_3606" data-name="Rectangle 3606" width="1.653" height="1.651" transform="translate(36.919 48.854) rotate(-11.326)" fill="#29367b"/>
    <rect id="Rectangle_3607" data-name="Rectangle 3607" width="1.653" height="1.65" transform="matrix(0.981, -0.196, 0.196, 0.981, 33.933, 46.778)" fill="#3088c8"/>
    <rect id="Rectangle_3608" data-name="Rectangle 3608" width="1.163" height="1.161" transform="translate(36.578 46.934) rotate(-11.321)" fill="#71ba44"/>
    <rect id="Rectangle_3609" data-name="Rectangle 3609" width="1.163" height="1.161" transform="translate(34.343 44.609) rotate(-11.356)" fill="#b1aeb3"/>
    <path id="Path_61704" data-name="Path 61704" d="M42.746,76.329l1.1-2.4-2.409-1.1-1.1,2.4" transform="translate(-16.354 -29.528)" fill="#27b8be"/>
    <path id="Path_61705" data-name="Path 61705" d="M48.805,78.56l.88-1.928-1.932-.878-.881,1.928" transform="translate(-19.004 -30.713)" fill="#d0da33"/>
    <path id="Path_61706" data-name="Path 61706" d="M46.034,70.678l.881-1.928-1.932-.879L44.1,69.8" transform="translate(-17.88 -27.517)" fill="#3088c8"/>
    <rect id="Rectangle_3610" data-name="Rectangle 3610" width="1.651" height="1.652" transform="translate(29.185 43.872) rotate(-65.484)" fill="#27b8be"/>
    <path id="Path_61707" data-name="Path 61707" d="M53.977,79.759l.686-1.5-1.5-.684-.686,1.5" transform="translate(-21.274 -31.451)" fill="#b1aeb3"/>
    <rect id="Rectangle_3611" data-name="Rectangle 3611" width="1.651" height="1.653" transform="translate(28.359 39.536) rotate(-65.484)" fill="#29367b"/>
    <rect id="Rectangle_3612" data-name="Rectangle 3612" width="1.651" height="1.653" transform="translate(31.565 44.718) rotate(-65.484)" fill="#58b75e"/>
    <rect id="Rectangle_3613" data-name="Rectangle 3613" width="1.65" height="1.652" transform="translate(30.359 41.293) rotate(-65.457)" fill="#d0da33"/>
    <path id="Path_61708" data-name="Path 61708" d="M55.916,71.263l.482-1.056-1.058-.482-.482,1.057" transform="translate(-22.241 -28.269)" fill="#1e3871"/>
    <path id="Path_61709" data-name="Path 61709" d="M55.158,65.9l.482-1.057-1.058-.481L54.1,65.418" transform="translate(-21.934 -26.094)" fill="#71ba44"/>
    <path id="Path_61710" data-name="Path 61710" d="M41.009,57.087l2.3-1.308L42,53.485l-2.3,1.308" transform="translate(-16.095 -21.684)" fill="#27b8be"/>
    <path id="Path_61711" data-name="Path 61711" d="M44.806,62.349,46.65,61.3,45.6,59.459l-1.844,1.05" transform="translate(-17.739 -24.106)" fill="#71ba44"/>
    <path id="Path_61712" data-name="Path 61712" d="M47.181,54.338l1.844-1.049-1.052-1.841L46.129,52.5" transform="translate(-18.702 -20.858)" fill="#1e3871"/>
    <path id="Path_61713" data-name="Path 61713" d="M49.424,59.166l1.435-.818-.819-1.433-1.436.817" transform="translate(-19.706 -23.075)" fill="#3088c8"/>
    <path id="Path_61714" data-name="Path 61714" d="M52.566,52.439,54,51.622l-.819-1.433-1.436.817" transform="translate(-20.98 -20.348)" fill="#71ba44"/>
    <path id="Path_61715" data-name="Path 61715" d="M51.829,62.657l1.436-.817-.819-1.434-1.436.818" transform="translate(-20.681 -24.491)" fill="#27b8be"/>
    <path id="Path_61716" data-name="Path 61716" d="M53.566,56.8,55,55.982l-.819-1.434-1.436.818" transform="translate(-21.385 -22.116)" fill="#d0da33"/>
    <path id="Path_61717" data-name="Path 61717" d="M55.2,60.426l1.01-.575-.576-1.008-1.01.574" transform="translate(-22.146 -23.857)" fill="#b1aeb3"/>
    <path id="Path_61718" data-name="Path 61718" d="M57.728,55.633l1.011-.575-.576-1.008-1.011.575" transform="translate(-23.171 -21.914)" fill="#71ba44"/>
    <rect id="Rectangle_3614" data-name="Rectangle 3614" width="2.641" height="2.646" transform="translate(30.4 25.299) rotate(-83.901)" fill="#71ba44"/>
    <rect id="Rectangle_3615" data-name="Rectangle 3615" width="2.119" height="2.123" transform="matrix(0.106, -0.994, 0.994, 0.106, 30.478, 28.857)" fill="#b1aeb3"/>
    <rect id="Rectangle_3616" data-name="Rectangle 3616" width="2.119" height="2.123" transform="matrix(0.106, -0.994, 0.994, 0.106, 34.415, 25.82)" fill="#27b8be"/>
    <rect id="Rectangle_3617" data-name="Rectangle 3617" width="1.65" height="1.653" transform="translate(33.892 28.662) rotate(-83.876)" fill="#d0da33"/>
    <rect id="Rectangle_3618" data-name="Rectangle 3618" width="1.65" height="1.653" transform="translate(37.749 26.504) rotate(-83.918)" fill="#3088c8"/>
    <rect id="Rectangle_3619" data-name="Rectangle 3619" width="1.65" height="1.653" transform="translate(33.833 31.18) rotate(-83.876)" fill="#27b8be"/>
    <rect id="Rectangle_3620" data-name="Rectangle 3620" width="1.65" height="1.653" transform="translate(36.714 28.957) rotate(-83.876)" fill="#71ba44"/>
    <rect id="Rectangle_3621" data-name="Rectangle 3621" width="1.161" height="1.163" transform="translate(36.314 30.997) rotate(-83.884)" fill="#1e3871"/>
    <rect id="Rectangle_3622" data-name="Rectangle 3622" width="1.161" height="1.164" transform="translate(39.207 29.563) rotate(-83.913)" fill="#b1aeb3"/>
    <path id="Path_61719" data-name="Path 61719" d="M75.458,61.39a6.3,6.3,0,0,0-5.31-.3,10.314,10.314,0,0,0-2.484,1.47,26.959,26.959,0,0,1-.13-6.712.01.01,0,0,1,.015-.007c1,.627.718,2.38.508,2.881,0,.01.011.017.018.008a3.093,3.093,0,0,0,.381-3.5c-.046-.074.235.151.466.447A3.424,3.424,0,0,1,69.486,58s.005,0,.007,0a2.928,2.928,0,0,0-.8-3.607c-.054-.046.158.023.225.047a2.428,2.428,0,0,1,1.533,2.324,2.312,2.312,0,0,0-1.8-3.05,2.3,2.3,0,0,1,1.621.323c.442.3.558.658.546.557a1.917,1.917,0,0,0-2.6-1.431,1.3,1.3,0,0,1,1.269-.588,1.26,1.26,0,0,1,.463.109.01.01,0,0,0,.011-.015,1.455,1.455,0,0,0-2.4.106.01.01,0,0,1-.017,0,4.57,4.57,0,0,1-.5-1.408,6.319,6.319,0,0,1-.513,1.408.009.009,0,0,1-.016,0,1.454,1.454,0,0,0-2.4-.106.01.01,0,0,0,.011.015,1.482,1.482,0,0,1,1.742.464.01.01,0,0,1-.012.015,1.913,1.913,0,0,0-2.6,1.431c0,.011.014.017.019.007a1.561,1.561,0,0,1,.347-.425,2.237,2.237,0,0,1,1.8-.463,2.381,2.381,0,0,0-1.8,1.441c-.293.786-.011,1.821,0,1.565a2.386,2.386,0,0,1,1.748-2.344.01.01,0,0,1,.009.017,2.852,2.852,0,0,0-.778,3.6,2.961,2.961,0,0,1,1-2.77c.008-.007.021,0,.015.012a3.094,3.094,0,0,0,.381,3.5c.007.008.022,0,.018-.008-.209-.5-.488-2.254.508-2.881a.01.01,0,0,1,.015.007,26.9,26.9,0,0,1-.13,6.712,7.609,7.609,0,0,0-5.137-1.91,5.99,5.99,0,0,0-2.658.738.024.024,0,0,0,.02.042c2.913-.931,5.434.2,7.778,2.149a25.94,25.94,0,0,1-2.882,2.437.653.653,0,1,0-1.038.794c1.023,1.021,2.623-1,4.537-2.7,1.842,1.628,3.516,3.718,4.537,2.7a.731.731,0,0,0,.127-.564.654.654,0,0,0-1.165-.23,25.4,25.4,0,0,1-2.882-2.437c2.36-1.967,4.854-3.066,7.777-2.149a.024.024,0,0,0,.021-.042" transform="translate(-23.765 -20.819)" fill="#727a82"/>
    <path id="Path_61720" data-name="Path 61720" d="M42.373,110.472h.759v-6.8h-.759Zm-19.895-.758-1.186-2.908a2.807,2.807,0,0,1,3.73,0l-1.186,2.908Zm-4.186,0a5.227,5.227,0,0,1-1.571-.118c-2.052-.648-1.494-3.5.8-3.5h.769Zm21.11,0c-1.223-.037-2.325.216-2.885-.757a21.06,21.06,0,0,0,.067-3.155h-.759v2.567c0,1.884-2.274,1.762-2.81.63-.215-.455-.084-.645-.123-3.2h-.76v2.624a1.183,1.183,0,0,1-1.281,1.288H29.379V105.8h-.759v3.912H24.633l1.329-3.173a4.643,4.643,0,0,0-2.809-1.279,4.471,4.471,0,0,0-2.81,1.279l1.338,3.173H19.051v-4.386H17.837c-1.717,0-3.142.987-3.142,2.6,0,2.88,3.532,2.525,3.6,2.539-.012.093.095.744-.342,1.071a2.136,2.136,0,0,1-1.59.19,3.7,3.7,0,0,1-.64-.228l-.237.73a4.146,4.146,0,0,0,1.452.322c1.447,0,2.117-.722,2.117-1.942v-.142c12.392-.078,12.026.178,12.781-.237a1.949,1.949,0,0,0,.7-.635,1.934,1.934,0,0,0,.75.711,2.777,2.777,0,0,0,2.293.018,1.623,1.623,0,0,0,.735-.73,1.786,1.786,0,0,0,1.661.863v.009h2.192v-6.8H39.4Zm68.132-.336a1.989,1.989,0,0,1-3.654-.024,2.081,2.081,0,0,1,0-1.539,1.987,1.987,0,0,1,3.654,1.563m-7.366,0a2,2,0,0,1-3.246.606,2.053,2.053,0,0,1,0-2.8,1.995,1.995,0,0,1,3.251,2.2m-18.466.336a4.936,4.936,0,0,1-1.552-.122c-2-.657-1.523-3.506.8-3.506h.75Zm29.12,0h-2.61a2.75,2.75,0,1,0-5.012,0h-2.354a2.75,2.75,0,1,0-5.012,0H93.424v-6.041h-.759v6.041h-2.42c-.042-.778.177-1.93-.475-2.657a1.928,1.928,0,0,0-1.6-.653h-3.36l1.429-2.731h-.826l-1.458,2.721a1.394,1.394,0,0,0,.342.767c3.8.032,4.045-.08,4.494.109a1.032,1.032,0,0,1,.641.734,9.089,9.089,0,0,1,.057,1.709H82.461v-4.386h-1.2c-2.012,0-3.132,1.2-3.132,2.576,0,1.728,1.39,2.567,3.132,2.567H96.329a2.775,2.775,0,0,0,4.025,0h3.341a2.775,2.775,0,0,0,4.025,0h3.863v-6.8h-.76Zm2.971.758h.759v-6.8h-.759ZM57.845,112.14h.78v-.778h-.78Zm7.424-2.426-1.187-2.908a2.807,2.807,0,0,1,3.73,0l-1.186,2.908Zm5.381,0H67.424l1.328-3.173a4.641,4.641,0,0,0-2.809-1.279,4.477,4.477,0,0,0-2.81,1.279l1.338,3.173H61.644v-4.386h-.76v5.3c0,.67-.049,1.165-.721,1.165a1.181,1.181,0,0,1-.389-.057l-.2.73a1.571,1.571,0,0,0,1.756-.432,2.948,2.948,0,0,0,.313-1.568h9.767v-6.8h-.76Zm-57.646-3.723a2.557,2.557,0,0,0-2.155-.663v.757a2.711,2.711,0,0,1,1.186.118,1.125,1.125,0,0,1,.631.744,16.55,16.55,0,0,1,.062,2.766H9.17v.758h4.319c-.032-2.872.078-3.176-.119-3.818a1.741,1.741,0,0,0-.365-.663m42.064,6.158h.78v-.778h-.78Zm-4.617-2.435a4.94,4.94,0,0,1-1.552-.122c-2-.658-1.52-3.506.8-3.506h.75Zm8.163-4.386h-.759v4.386H54.99v-4.386H54.23v4.386H51.212v-4.386c-.955.03-2.379-.193-3.474.734-1.552,1.315-1.152,4.41,2.278,4.41h8.6v-5.144m-4.876,6.821h.78v-.778h-.78ZM3,103.672h-.78v.778H3v-.778m78.132,0h-.78v.778h.78Zm-29.919,0h-.78v.778h.78ZM7.475,112.149h.78v-.778h-.78Zm42.4-8.477H49.1v.778h.78Zm-45.553,0h-.78v.778h.78Zm1.819,8.477h.78v-.778h-.78ZM3.57,109.713a4.935,4.935,0,0,1-1.552-.122c-2-.655-1.526-3.506.8-3.506h.75Zm4.537-4.386H7.348v4.386H4.329v-4.386a8.011,8.011,0,0,0-2.487.194,2.634,2.634,0,0,0-1.618,1.36,2.591,2.591,0,0,0,.034,2.179,3.058,3.058,0,0,0,2.875,1.412H8.107v-5.144m65.515,5.144h.759v-6.8h-.759Zm8.835-6.8h-.78v.778h.78Z" transform="translate(0 -42.032)" fill="#ada9ae"/>
    <path id="Path_61721" data-name="Path 61721" d="M1.252,123.484H2.2v2.722l2.58-2.722h1.17L3.7,125.811,6.055,128.9H4.9L3.05,126.461l-.845.866v1.57H1.252" transform="translate(-0.507 -50.064)" fill="#ada9ae"/>
    <rect id="Rectangle_3623" data-name="Rectangle 3623" width="0.953" height="5.413" transform="translate(6.417 73.42)" fill="#ada9ae"/>
    <path id="Path_61722" data-name="Path 61722" d="M14.864,123.484h.884l2.906,3.743v-3.743h.937V128.9h-.8L15.8,125.046V128.9h-.938" transform="translate(-6.026 -50.064)" fill="#ada9ae"/>
    <path id="Path_61723" data-name="Path 61723" d="M24.8,126.142v-.015a2.761,2.761,0,0,1,2.8-2.8,2.934,2.934,0,0,1,2.085.735l-.6.719a1.888,1.888,0,0,0-3.277,1.33v.015a1.809,1.809,0,0,0,1.843,1.933,2.217,2.217,0,0,0,1.31-.41v-1.013H27.564v-.827h2.309v2.273c-1.939,1.657-5.075.806-5.075-1.941" transform="translate(-10.054 -50)" fill="#ada9ae"/>
    <path id="Path_61724" data-name="Path 61724" d="M37.57,128.031a1.841,1.841,0,1,0,0-3.681H36.5v3.681Zm-2.022-4.547H37.57a2.712,2.712,0,1,1,0,5.413H35.548Z" transform="translate(-14.412 -50.064)" fill="#ada9ae"/>
    <path id="Path_61725" data-name="Path 61725" d="M49.97,126.142v-.015a1.856,1.856,0,0,0-1.844-1.925,1.83,1.83,0,0,0-1.828,1.91v.015a1.856,1.856,0,0,0,1.844,1.926,1.831,1.831,0,0,0,1.829-1.91m-4.672,0v-.015a2.836,2.836,0,0,1,5.672-.015v.015a2.836,2.836,0,0,1-5.672.015" transform="translate(-18.365 -50)" fill="#ada9ae"/>
    <path id="Path_61726" data-name="Path 61726" d="M56.828,123.484h1.015l1.651,2.56,1.65-2.56h1.015V128.9H61.2v-3.882l-1.712,2.552h-.031l-1.7-2.536V128.9h-.938" transform="translate(-23.04 -50.064)" fill="#ada9ae"/>
    <path id="Path_61727" data-name="Path 61727" d="M76.321,126.142v-.015a1.856,1.856,0,0,0-1.844-1.925,1.83,1.83,0,0,0-1.828,1.91v.015a1.856,1.856,0,0,0,1.844,1.926,1.831,1.831,0,0,0,1.829-1.91m-4.672,0v-.015a2.836,2.836,0,0,1,5.672-.015v.015a2.836,2.836,0,0,1-5.672.015" transform="translate(-29.049 -50)" fill="#ada9ae"/>
    <path id="Path_61728" data-name="Path 61728" d="M83.18,123.484h4.037v.866H84.133v1.477h2.735v.866H84.133v2.2H83.18" transform="translate(-33.723 -50.064)" fill="#ada9ae"/>
    <path id="Path_61729" data-name="Path 61729" d="M95.028,128.054l.573-.681a2.5,2.5,0,0,0,1.712.7c.589,0,.961-.271.961-.681v-.015c0-1.209-3.03-.384-3.03-2.444v-.015c0-1.661,2.325-2.085,3.82-.889l-.511.719c-1.247-.928-2.355-.563-2.355.086v.015c0,1.192,3.029.438,3.029,2.435v.015c0,1.9-2.691,2.093-4.2.75" transform="translate(-38.527 -50.01)" fill="#ada9ae"/>
    <path id="Path_61730" data-name="Path 61730" d="M106.74,126.721l-.938-2.165-.93,2.165Zm-1.364-3.3h.883l2.387,5.452h-1.007l-.55-1.307h-2.565l-.557,1.307h-.977Z" transform="translate(-41.755 -50.038)" fill="#ada9ae"/>
    <path id="Path_61731" data-name="Path 61731" d="M113.445,126.6v-3.117h.953v3.078c0,1.005.519,1.546,1.371,1.546s1.364-.51,1.364-1.508v-3.117h.953v3.07a2.164,2.164,0,0,1-2.333,2.428,2.136,2.136,0,0,1-2.309-2.382" transform="translate(-45.994 -50.064)" fill="#ada9ae"/>
    <path id="Path_61732" data-name="Path 61732" d="M125.619,128.031a1.841,1.841,0,1,0,0-3.681H124.55v3.681Zm-2.022-4.547h2.022a2.712,2.712,0,1,1,0,5.413H123.6Z" transform="translate(-50.11 -50.064)" fill="#ada9ae"/>
    <rect id="Rectangle_3624" data-name="Rectangle 3624" width="0.953" height="5.413" transform="translate(79.599 73.42)" fill="#ada9ae"/>
    <path id="Path_61733" data-name="Path 61733" d="M144.8,126.721l-.938-2.165-.93,2.165Zm-1.364-3.3h.883l2.387,5.452h-1.007l-.55-1.307h-2.565l-.557,1.307h-.977Z" transform="translate(-57.184 -50.038)" fill="#ada9ae"/>
    <path id="Path_61734" data-name="Path 61734" d="M154.42,126.167c.682,0,1.116-.356,1.116-.9v-.015c0-.58-.419-.9-1.124-.9h-1.387v1.818h1.394m-2.347-2.683h2.417c1.146,0,2.015.576,2.015,1.709a1.624,1.624,0,0,1-1.294,1.655l1.464,2.049h-1.124l-1.332-1.887h-1.193V128.9h-.953Z" transform="translate(-61.655 -50.064)" fill="#ada9ae"/>
    <path id="Path_61735" data-name="Path 61735" d="M164.743,126.721l-.938-2.165-.93,2.165Zm-1.364-3.3h.884l2.386,5.452h-1.007l-.55-1.307h-2.565l-.557,1.307h-.977Z" transform="translate(-65.271 -50.038)" fill="#ada9ae"/>
    <path id="Path_61736" data-name="Path 61736" d="M174.537,128.054c.651,0,1.046-.256,1.046-.743V127.3c0-.456-.364-.727-1.115-.727h-1.511v1.485Zm-.279-2.289c.612,0,1.023-.24,1.023-.735v-.015c0-.425-.341-.688-.953-.688h-1.371v1.438Zm-2.239-2.281h2.433c.954,0,1.782.446,1.782,1.376a1.275,1.275,0,0,1-.775,1.222,1.328,1.328,0,0,1,1.077,1.315v.015c0,.967-.8,1.485-2.007,1.485h-2.51Z" transform="translate(-69.741 -50.064)" fill="#ada9ae"/>
    <rect id="Rectangle_3625" data-name="Rectangle 3625" width="0.953" height="5.413" transform="translate(107.975 73.42)" fill="#ada9ae"/>
    <path id="Path_61737" data-name="Path 61737" d="M188.485,126.721l-.938-2.165-.93,2.165Zm-1.364-3.3H188l2.387,5.452h-1.007l-.55-1.307h-2.565l-.557,1.307h-.977Z" transform="translate(-74.896 -50.038)" fill="#ada9ae"/>
  </g>
</svg>
