<svg xmlns="http://www.w3.org/2000/svg" width="41" height="41" viewBox="0 0 41 41">
  <g id="baby-Icon" transform="translate(0.5 0.5)">
    <rect id="BG" width="40" height="40" rx="20" fill="#fff" stroke="#2fa55e" stroke-width="1"/>
    <path id="Icon" d="M5.605.658A1.454,1.454,0,0,0,3.515.294,9.121,9.121,0,0,0,0,7.432H9.909ZM19.2,3.716H17.342a2.48,2.48,0,0,0-2.477,2.477V8.67H0A6.864,6.864,0,0,0,2.334,13.73a3.093,3.093,0,1,0,3.859,2.992,3.128,3.128,0,0,0-.17-.975,10.02,10.02,0,0,0,5.3,0,3.02,3.02,0,0,0-.17.975,3.1,3.1,0,1,0,3.859-2.992A6.864,6.864,0,0,0,17.342,8.67V6.193H19.2a.621.621,0,0,0,.619-.619V4.335A.621.621,0,0,0,19.2,3.716ZM3.1,17.96a1.239,1.239,0,1,1,1.239-1.239A1.242,1.242,0,0,1,3.1,17.96Zm12.387-1.239a1.239,1.239,0,1,1-1.239-1.239A1.242,1.242,0,0,1,15.484,16.722Z" transform="translate(10.091 10.091)" fill="#2fa55e"/>
  </g>
</svg>
