<svg id="mission-Icon" xmlns="http://www.w3.org/2000/svg" width="30.18" height="30.184" viewBox="0 0 30.18 30.184">
  <path id="Path_61742" data-name="Path 61742" d="M160.843,154.621a.752.752,0,1,0,0-1.5,6.015,6.015,0,1,0,6.015,6.015.752.752,0,0,0-1.5,0,4.511,4.511,0,1,1-4.511-4.511" transform="translate(-145.7 -144.09)" fill="#fff"/>
  <path id="Path_61743" data-name="Path 61743" d="M29.488,10.575a.752.752,0,0,0-1.436.45,13.589,13.589,0,1,1-8.893-8.893A.752.752,0,0,0,19.608.7a15.088,15.088,0,1,0,9.88,9.88" transform="translate(0 0.001)" fill="#fff"/>
  <path id="Path_61744" data-name="Path 61744" d="M90.262,77.45a.813.813,0,0,0-.752-.818c-.225-.019-.449-.038-.68-.038A10.526,10.526,0,1,0,99.357,87.12a6.631,6.631,0,0,0-.05-.814.755.755,0,0,0-1.495.218c0,.016.005.031.008.047.016.182.032.363.032.549A9.022,9.022,0,1,1,88.83,78.1h0c.187,0,.367.016.549.032l.141.012a.712.712,0,0,0,.742-.681s0-.007,0-.011" transform="translate(-73.688 -72.079)" fill="#fff"/>
  <path id="Path_61745" data-name="Path 61745" d="M249.219,30.845v2.7l-5.043,5.043a.752.752,0,0,0,1.045,1.082l.018-.019,5.043-5.043h2.7a.752.752,0,0,0,.532-.22l4.511-4.511a.752.752,0,0,0-.531-1.283h-2.256V26.334a.752.752,0,0,0-1.283-.531l-4.511,4.511a.751.751,0,0,0-.22.532m1.5.311,3.008-3.008v1.192a.752.752,0,0,0,.752.752h1.192L252.667,33.1h-1.944Z" transform="translate(-229.565 -24.074)" fill="#fff"/>
</svg>
