<svg id="Mosque" xmlns="http://www.w3.org/2000/svg" xmlns:xlink="http://www.w3.org/1999/xlink" width="95.207" height="82.85" viewBox="0 0 95.207 82.85">
  <defs>
    <clipPath id="clip-path">
      <rect id="Rectangle_3632" data-name="Rectangle 3632" width="95.207" height="82.85" fill="none"/>
    </clipPath>
  </defs>
  <g id="Group_14280" data-name="Group 14280" clip-path="url(#clip-path)">
    <path id="Path_61767" data-name="Path 61767" d="M63.555,7.57a4.236,4.236,0,0,1-3-7.232,1.107,1.107,0,0,1,1.593,1.538c-.009.009-.018.019-.028.028a2.025,2.025,0,0,0,2.863,2.863A1.107,1.107,0,1,1,66.579,6.3c-.009.009-.018.019-.028.028a4.227,4.227,0,0,1-3,1.239" transform="translate(-46.491 0)" fill="#f9dd64"/>
    <path id="Path_61768" data-name="Path 61768" d="M71.68,29.891v4.982a1.107,1.107,0,1,0,2.214,0V29.891Z" transform="translate(-56.181 -23.428)" fill="#f9dd64"/>
    <path id="Path_61769" data-name="Path 61769" d="M48.709,55.491a7.749,7.749,0,0,1,7.749,7.749v5.535H40.96V63.24a7.749,7.749,0,0,1,7.749-7.749" transform="translate(-32.104 -43.493)" fill="#e6ebf4"/>
    <rect id="Rectangle_3630" data-name="Rectangle 3630" width="17.713" height="16.606" transform="translate(7.749 34.14)" fill="#e6ebf4"/>
    <rect id="Rectangle_3631" data-name="Rectangle 3631" width="22.141" height="21.034" transform="translate(5.535 61.816)" fill="#e6ebf4"/>
    <path id="Path_61770" data-name="Path 61770" d="M72.325,96.933V100.3a2.219,2.219,0,0,1-.83,1.727L66.79,105.79H64.576v21.034H49.144c-1.982-8.148-2.856-26.071-1.173-42.068a111.838,111.838,0,0,1,6.952-28.651,7.742,7.742,0,0,1,6.332,7.617v5.535h2.214a2.221,2.221,0,0,1,2.214,2.214v2.4a2.222,2.222,0,0,1-.653,1.572l-2.668,2.668V94.719h7.749A2.221,2.221,0,0,1,72.325,96.933Z" transform="translate(-36.9 -43.974)" fill="#f3f6fb"/>
    <path id="Path_61771" data-name="Path 61771" d="M91.884,285.891v21.034H81.92v-7.749a2.221,2.221,0,0,1,2.214-2.214h1.107v-4.428a2.221,2.221,0,0,1,2.214-2.214h.852a34.59,34.59,0,0,1-.077-4.428Z" transform="translate(-64.207 -224.075)" fill="#b5c5d5"/>
    <path id="Path_61772" data-name="Path 61772" d="M44.187,123.115l-2.673,2.673H23.8l-2.672-2.673a2.215,2.215,0,0,1-.649-1.565v-2.4a2.214,2.214,0,0,1,2.214-2.214H42.621a2.213,2.213,0,0,1,2.214,2.214v2.4a2.215,2.215,0,0,1-.649,1.565" transform="translate(-16.052 -91.648)" fill="#cddbe8"/>
    <path id="Path_61773" data-name="Path 61773" d="M33.212,234.691h-31A2.213,2.213,0,0,0,0,236.905v3.364A2.214,2.214,0,0,0,.831,242l4.7,3.764H29.891l4.7-3.764a2.214,2.214,0,0,0,.831-1.728v-3.364a2.213,2.213,0,0,0-2.214-2.214" transform="translate(0 -183.946)" fill="#cddbe8"/>
    <path id="Path_61774" data-name="Path 61774" d="M36.152,265.411a2.123,2.123,0,0,1-.554.664l-4.7,3.764H6.539l-4.7-3.764a2.123,2.123,0,0,1-.554-.664Z" transform="translate(-1.003 -208.023)" fill="#b5c5d5"/>
    <path id="Path_61775" data-name="Path 61775" d="M68.774,209.091a2.213,2.213,0,0,0-2.214,2.214v3.321h4.428v-3.321a2.213,2.213,0,0,0-2.214-2.214" transform="translate(-52.168 -163.881)" fill="#2d3c6b"/>
    <path id="Path_61776" data-name="Path 61776" d="M109.734,306.371h64.209a2.213,2.213,0,0,1,2.214,2.214v4.428H107.52v-4.428a2.213,2.213,0,0,1,2.214-2.214" transform="translate(-84.272 -240.127)" fill="#f3f6fb"/>
    <path id="Path_61777" data-name="Path 61777" d="M94.374,337.091h70.852a2.213,2.213,0,0,1,2.214,2.214v7.749H92.16v-7.749a2.213,2.213,0,0,1,2.214-2.214" transform="translate(-72.233 -264.204)" fill="#f3f6fb"/>
    <path id="Path_61778" data-name="Path 61778" d="M286.72,347.055s5.572-1.107,14.392-2.214c8.856-1.107,16.606-3.321,13.867-7.749h2.739a2.213,2.213,0,0,1,2.214,2.214v7.749Z" transform="translate(-224.725 -264.204)" fill="#cddbe8"/>
    <path id="Path_61779" data-name="Path 61779" d="M251.641,352.451a3.321,3.321,0,0,1,3.321,3.321v3.321H248.32v-3.321a3.321,3.321,0,0,1,3.321-3.321" transform="translate(-194.628 -276.243)" fill="#2d3c6b"/>
    <path id="Path_61780" data-name="Path 61780" d="M45.358,142.531a2.231,2.231,0,0,1-.454.653l-2.668,2.668H24.523l-2.668-2.668a2.231,2.231,0,0,1-.454-.653Z" transform="translate(-16.774 -111.713)" fill="#b5c5d5"/>
    <path id="Path_61781" data-name="Path 61781" d="M170.621,103.609c-9.449-5.652-13.015-11.418-13.015-11.418s-3.566,5.767-13.014,11.418C125.5,115.032,127.715,138.5,127.715,138.5H187.5S189.711,115.032,170.621,103.609Z" transform="translate(-100.039 -72.257)" fill="#22af97"/>
    <path id="Path_61782" data-name="Path 61782" d="M241.658,151.672H198.25c-5.89-17.6,6.675-33.489,16.528-42.677a48.483,48.483,0,0,0,10.008,7.783c19.086,11.425,16.872,34.894,16.872,34.894" transform="translate(-154.2 -85.428)" fill="#43beac"/>
    <path id="Path_61783" data-name="Path 61783" d="M244.157,36.672s2.839-6.394,2.989-8.725c.086-1.357-1-4.011-.895-5.367.163-2.115,2.68-8.05,2.68-8.05s2.517,5.935,2.683,8.05c.111,1.356-.981,4.01-.894,5.367.147,2.325,2.989,8.725,2.989,8.725Z" transform="translate(-191.365 -11.389)" fill="#f9dd64"/>
    <path id="Path_61784" data-name="Path 61784" d="M244.173,36.672h1.86s2.845-6.4,2.989-8.724c.088-1.362-1-4.007-.9-5.369a28.734,28.734,0,0,1,1.749-5.723c-.509-1.328-.93-2.325-.93-2.325s-2.513,5.934-2.679,8.048c-.111,1.362.974,4.008.886,5.369C247.007,30.273,244.173,36.672,244.173,36.672Z" transform="translate(-191.377 -11.389)" fill="#e0b95e"/>
    <path id="Path_61785" data-name="Path 61785" d="M281.6,313.013s20.576-.19,22.141-3.321a2.424,2.424,0,0,0-1.015-3.275c-.03-.017-.061-.032-.092-.047h7.749a2.213,2.213,0,0,1,2.214,2.214v4.428Z" transform="translate(-220.712 -240.127)" fill="#cddbe8"/>
  </g>
</svg>
