<svg xmlns="http://www.w3.org/2000/svg" xmlns:xlink="http://www.w3.org/1999/xlink" width="50" height="50" viewBox="0 0 50 50">
  <defs>
    <clipPath id="clip-path">
      <rect id="Rectangle_77" data-name="Rectangle 77" width="50" height="50" transform="translate(0.199 0.032)" fill="#2fa55e"/>
    </clipPath>
  </defs>
  <g id="news-Icon" transform="translate(-0.199 -0.032)" clip-path="url(#clip-path)">
    <path id="Path_366" data-name="Path 366" d="M370.493,459.523a.979.979,0,0,0-1.338-.355l-.038.022a.979.979,0,1,0,.983,1.693l.038-.022a.979.979,0,0,0,.355-1.338" transform="translate(-332.441 -414.088)" fill="#2fa55e"/>
    <path id="Path_367" data-name="Path 367" d="M46.766,12.539a25.056,25.056,0,0,0-45.9,6.043A25.06,25.06,0,0,0,34.029,48.469a.979.979,0,0,0-.7-1.827,22.95,22.95,0,0,1-22.085-3.035l.877-4.578.423-.137A3.049,3.049,0,0,0,14.5,35.053l-.31-.954a1.081,1.081,0,0,1,0-.675,3.046,3.046,0,0,0-2.31-3.938l-2.21-.432L5.406,25.812a.979.979,0,0,0-.895-.152l-2.5.811a23.079,23.079,0,0,1,0-2.673c.1.092.163.154.2.2a1.026,1.026,0,0,0,.956.49,14.219,14.219,0,0,0,1.754-.2c.826-.122,1.647-.26,1.656-.261a.979.979,0,0,0,.647-1.517l-1.2-1.761,1.719-1.229a.977.977,0,0,0,.28-.31l2.665-4.653L11.765,13.4a4.135,4.135,0,0,0,.8-4.386,4.5,4.5,0,0,0-1.783-2.1A23.068,23.068,0,0,1,24.8,1.976L23.051,4.169,16.568,6.441a.978.978,0,0,0-.581.55l-1.81,4.389a.979.979,0,0,0,.108.942l2.644,3.7A9.3,9.3,0,0,0,15.742,17.5c-.193.274-.375.533-.5.678-.11.126-.219.25-.328.372a9.159,9.159,0,0,0-1.575,2.185,5.834,5.834,0,0,0,.484,5.9,5.5,5.5,0,0,0,5.188,2.226,7.635,7.635,0,0,0,.956-.193c.839-.208,1.105-.228,1.374.024.131.123.143.146.14.562a3.8,3.8,0,0,0,.087.97,3.092,3.092,0,0,0,.827,1.351,2.2,2.2,0,0,1,.355.453,2.438,2.438,0,0,1-.119,2.025c-.025.076-.05.154-.076.233-.443,1.37.174,2.729.719,3.928.177.389.344.757.453,1.082.88,2.612,1.54,3.21,2.07,3.451a2.042,2.042,0,0,0,.854.181c1.411,0,2.884-1.31,3.56-2.141a3.011,3.011,0,0,0,.606-1.425,1.557,1.557,0,0,1,.125-.437,2.57,2.57,0,0,1,.321-.413,3.4,3.4,0,0,0,.8-1.33,2.155,2.155,0,0,1,.664-1.042l.216-.232a3.139,3.139,0,0,0,.612-3.65c-.3-.966.224-1.583,1.49-2.762A10.568,10.568,0,0,0,36.6,27.818a2.114,2.114,0,0,0,.415-1.961c-.354-.821-1.254-.959-1.977-1.07a3.243,3.243,0,0,1-.854-.2,4.626,4.626,0,0,1-1.335-2.022c-.071-.159-.142-.316-.213-.469-.127-.272-.254-.6-.389-.949a8.213,8.213,0,0,0-1.447-2.7A6.252,6.252,0,0,0,27.992,17.2c-.345-.093-.671-.182-.887-.261a.978.978,0,0,0-.562-.035,2.54,2.54,0,0,0-1.043.432,1.215,1.215,0,0,0-.349.469,11.187,11.187,0,0,1-1.155-.7l-.019-.013a1.387,1.387,0,0,0-.087-.942c-.547-1.157-2.362-1.066-2.72-1.036-.2.017-.461.026-.733.036-.428.015-.9.032-1.368.085l.024-.067a2.5,2.5,0,0,1,2.35-1.654H22a.979.979,0,1,0,0-1.958h-.556a4.469,4.469,0,0,0-3.79,2.113l-1.46-2.045L17.63,8.144l6.334-2.221a.98.98,0,0,0,.442-.314l2.816-3.532A23.086,23.086,0,0,1,45.07,13.518a22.85,22.85,0,0,1,2.307,5.6l-.415.37a2.615,2.615,0,0,0-.871,1.9c0,.008,0,.016,0,.024l-.676-1.859a2.442,2.442,0,0,0-.441-.756l-1.206-1.412a2.454,2.454,0,0,0-1.868-.861H40.423a1.418,1.418,0,0,0-1.18,2.2l.149.224a10.849,10.849,0,0,1-3.232,1.919L34.137,17v-.865a.979.979,0,0,0-.3-.708l-1.822-1.74a.979.979,0,0,0-.351-.215L30.02,12.9a.979.979,0,0,0-.649,1.847l1.441.507,1.367,1.3v.686a.979.979,0,0,0,.111.453l2.533,4.853a.978.978,0,0,0,1.206.465l.738-.272a12.813,12.813,0,0,0,4.594-2.94.979.979,0,0,0,.122-1.235l-.052-.078H41.9a.5.5,0,0,1,.379.175l1.206,1.412a.5.5,0,0,1,.089.154l1.331,3.66a.979.979,0,0,0,1.612.358l.634-.634a3.057,3.057,0,0,0,.809-1.472,23.182,23.182,0,0,1-8.607,21.082.979.979,0,1,0,1.209,1.54,25.061,25.061,0,0,0,6.2-32.222M4.628,27.681,8.665,30.75a.976.976,0,0,0,.4.182l2.433.475a1.088,1.088,0,0,1,.825,1.407,3.026,3.026,0,0,0,0,1.89l.31.954a1.089,1.089,0,0,1-.7,1.371l-.973.316a.979.979,0,0,0-.659.747l-.783,4.087a23.359,23.359,0,0,1-4.46-5.562,22.98,22.98,0,0,1-2.844-8.152Zm5.705-15.614L9.182,13.3a.988.988,0,0,0-.134.181L6.433,18.048,4.109,19.71a.979.979,0,0,0-.239,1.348l.869,1.275c-.5.075-.951.136-1.25.169-.057-.055-.117-.111-.18-.169-.233-.216-.556-.5-1.038-.927a23.138,23.138,0,0,1,6.9-13.1,2.545,2.545,0,0,1,1.586,1.452,2.172,2.172,0,0,1-.419,2.3m7.982,5.35a6.277,6.277,0,0,1,2.19-.308c.3-.01.577-.02.827-.041a2.663,2.663,0,0,1,.417,0,.979.979,0,0,0,.45,1.218c.184.1.439.269.71.449a5.641,5.641,0,0,0,2.447,1.14,1.624,1.624,0,0,0,1.33-.554c.014-.014.027-.029.042-.042a1.05,1.05,0,0,0,.262-.321c.157.045.321.089.49.135a6.519,6.519,0,0,1,1.9.7,6.944,6.944,0,0,1,1.045,2.057c.147.381.286.74.442,1.074.067.143.133.29.2.44a6.114,6.114,0,0,0,2.05,2.86,4.048,4.048,0,0,0,1.629.5l.213.034a9.467,9.467,0,0,1-1.242,1.3c-1.212,1.129-2.72,2.533-2.026,4.774.328,1.058.343,1.173-.184,1.746-.072.078-.139.149-.2.216a4.023,4.023,0,0,0-1.1,1.79,1.529,1.529,0,0,1-.4.622,4.355,4.355,0,0,0-.548.725,3.172,3.172,0,0,0-.354,1.04,1.2,1.2,0,0,1-.2.574,5.709,5.709,0,0,1-1.236,1.093,1.614,1.614,0,0,1-.82.327,6.982,6.982,0,0,1-1.054-2.3c-.141-.419-.337-.849-.526-1.266a4.2,4.2,0,0,1-.638-2.517l.073-.224a4.276,4.276,0,0,0,.065-3.389,3.53,3.53,0,0,0-.713-1.016,1.82,1.82,0,0,1-.374-.5,2.116,2.116,0,0,1-.032-.5,2.428,2.428,0,0,0-.76-2,3.153,3.153,0,0,0-3.183-.495,6.137,6.137,0,0,1-.714.149,3.517,3.517,0,0,1-3.37-1.424,3.876,3.876,0,0,1-.3-3.918,7.433,7.433,0,0,1,1.267-1.721c.114-.128.228-.257.343-.389.191-.22.4-.518.623-.834a7.072,7.072,0,0,1,.974-1.211" transform="translate(0.1 0.008)" fill="#2fa55e"/>
    <path id="Path_368" data-name="Path 368" d="M356.01,321.214l-.471-1.775a.979.979,0,0,0-1.807-.216c-.107.2-.2.407-.3.61a4.207,4.207,0,0,1-.489.888,2.165,2.165,0,0,1-.575.341,2.691,2.691,0,0,0-1.631,1.585,2.868,2.868,0,0,0-.065,1.381.891.891,0,0,1-.025.577l-.01.023c-.312.731-.891,2.092-.078,3.25a2.039,2.039,0,0,0,1.664,1.038,1.574,1.574,0,0,0,.261-.021c1-.163,1.749-1.2,2.363-3.269L356,321.744a.981.981,0,0,0,.008-.53m-3.036,3.854a5.941,5.941,0,0,1-.749,1.764c-.018-.024-.038-.05-.06-.081-.187-.266.093-.923.278-1.357l.01-.023a2.754,2.754,0,0,0,.161-1.631,1.027,1.027,0,0,1,0-.508c.038-.122.268-.241.613-.407.153-.074.322-.155.492-.254Z" transform="translate(-315.77 -287.502)" fill="#2fa55e"/>
    <path id="Path_369" data-name="Path 369" d="M257.413,118.137l-.066-.023a.979.979,0,1,0-.648,1.847l.066.023a.979.979,0,1,0,.648-1.847" transform="translate(-230.877 -106.493)" fill="#2fa55e"/>
  </g>
</svg>
