<svg xmlns="http://www.w3.org/2000/svg" width="35.683" height="35.686" viewBox="0 0 35.683 35.686">
  <g id="vision-Icon" transform="translate(0.25 0.252)">
    <path id="Path_61746" data-name="Path 61746" d="M87.2,22.034a2.583,2.583,0,0,0-.024,5.049,2.579,2.579,0,0,0,1.4,4.306,3.937,3.937,0,0,0,7.868,0,2.579,2.579,0,0,0,1.4-4.306,2.583,2.583,0,0,0-.024-5.049c.173-1.7.892-2.657,2.416-4.295A10.552,10.552,0,0,0,91.838.022a10.635,10.635,0,0,0-9.871,10.114,10.487,10.487,0,0,0,2.844,7.632c1.474,1.573,2.215,2.555,2.39,4.266m5.31,12.271a3.063,3.063,0,0,1-3.052-2.869h6.1a3.063,3.063,0,0,1-3.052,2.869m3.454-3.749H89.057a1.7,1.7,0,1,1,0-3.41h6.908a1.7,1.7,0,1,1,0,3.41m3.024-5.994a1.707,1.707,0,0,1-1.705,1.7H87.737a1.7,1.7,0,1,1,0-3.41h9.547a1.707,1.707,0,0,1,1.705,1.705M90.266,13.778H88.48a1.786,1.786,0,1,1,1.786-1.786Zm.88.88h2.73v7.319h-2.73ZM91.892.9a9.673,9.673,0,0,1,7.7,16.241c-1.5,1.615-2.444,2.784-2.648,4.837H94.755V14.658h1.786a2.665,2.665,0,1,0-2.665-2.665v1.786h-2.73V11.993a2.665,2.665,0,1,0-2.665,2.665h1.786v7.319H88.085c-.2-2.073-1.141-3.22-2.633-4.811a9.614,9.614,0,0,1-2.607-7A9.748,9.748,0,0,1,91.892.9m2.863,12.879V11.993a1.786,1.786,0,1,1,1.786,1.786Z" transform="translate(-74.919 -0.001)" fill="#fff" stroke="#fff" stroke-width="0.5"/>
    <path id="Path_61747" data-name="Path 61747" d="M337.521,39.312a.439.439,0,0,0,.22-.059l3.4-1.962a.44.44,0,1,0-.44-.762l-3.4,1.962a.44.44,0,0,0,.22.821" transform="translate(-308.126 -33.337)" fill="#fff" stroke="#fff" stroke-width="0.5"/>
    <path id="Path_61748" data-name="Path 61748" d="M358.032,119.915h-3.925a.44.44,0,1,0,0,.88h3.925a.44.44,0,0,0,0-.88" transform="translate(-323.288 -109.615)" fill="#fff" stroke="#fff" stroke-width="0.5"/>
    <path id="Path_61749" data-name="Path 61749" d="M337.79,180.9a.44.44,0,0,0,.161.6l3.4,1.962a.44.44,0,1,0,.44-.762l-3.4-1.962a.44.44,0,0,0-.6.161" transform="translate(-308.721 -165.162)" fill="#fff" stroke="#fff" stroke-width="0.5"/>
    <path id="Path_61750" data-name="Path 61750" d="M22.926,37.29l3.4,1.962a.44.44,0,1,0,.44-.762l-3.4-1.962a.44.44,0,1,0-.44.762" transform="translate(-20.755 -33.337)" fill="#fff" stroke="#fff" stroke-width="0.5"/>
    <path id="Path_61751" data-name="Path 61751" d="M.44,120.795H4.365a.44.44,0,1,0,0-.88H.44a.44.44,0,1,0,0,.88" transform="translate(0 -109.615)" fill="#fff" stroke="#fff" stroke-width="0.5"/>
    <path id="Path_61752" data-name="Path 61752" d="M25.676,180.741l-3.4,1.962a.44.44,0,0,0,.44.762l3.4-1.962a.44.44,0,0,0-.44-.762" transform="translate(-20.162 -165.162)" fill="#fff" stroke="#fff" stroke-width="0.5"/>
  </g>
</svg>
