<svg xmlns="http://www.w3.org/2000/svg" width="136.97" height="91.633" viewBox="0 0 136.97 91.633">
  <g id="white-2030" transform="translate(0)">
    <path id="Path_61668" data-name="Path 61668" d="M97.654,52.028v.1c0,6.609-4.816,11.466-12.643,11.466a17.052,17.052,0,0,1-13.7-6.059l5.318-5.058c2.408,2.7,4.916,4.206,8.478,4.206,2.91,0,4.967-1.652,4.967-4.256-.039-.069.567-4.556-6.873-4.556H80l-1.2-4.908,11.265-11.31-4.514,2.9H73.373V27.945H97.1v5.808l-8.879,8.462c4.766.8,9.431,3.3,9.431,9.814M75.631,11.918A5.492,5.492,0,0,1,81.109,6.19h3.6l-.944.47c.043,8.7-.173,9.793.384,11.065h-3a5.558,5.558,0,0,1-5.518-5.767Zm5.478,7.264h3.2V18.031a2.224,2.224,0,0,0,1.011.938c1.018.483.278.179,29.477.269V4.734h-1.54V17.7s-26.7.1-27.206-.125a1.342,1.342,0,0,1-.674-1.133c-.117-.783-.046-.8-.067-11.709H81.149a7.084,7.084,0,0,0-7.158,7.224V12a7.017,7.017,0,0,0,7.118,7.184M126.148,3.2h-3.374c.073-1.115-.443-3.2,1.83-3.2h1.087V1.071c-1.052.078-1.657-.256-1.657.584v.355h2.115Zm3.9,16.2a4.722,4.722,0,0,1-1.251-.173l.4-1.479c.7.2,1.587.21,1.954-.413.429-.737.275-1,.3-12.6h1.54c-.044,10.827.106,11.129-.144,12.384a2.572,2.572,0,0,1-2.8,2.277M85.311,3.2H83.77V1.659h1.541Zm33.9,5.3A4.266,4.266,0,0,1,123,6.293v0h2.488l-.879.438v6.9a10.5,10.5,0,0,1-3.186-.241,3.419,3.419,0,0,1-2.571-3.372,3.26,3.26,0,0,1,.357-1.518m0,5.448a8.547,8.547,0,0,0,4.882,1.22l.518-1.084c-.084,1.051.289,2.52-.693,3.256a4.337,4.337,0,0,1-3.225.384,7.48,7.48,0,0,1-1.3-.46l-.481,1.479a8.4,8.4,0,0,0,2.945.653,4.365,4.365,0,0,0,3.273-1.066,3.986,3.986,0,0,0,1.02-2.873V4.734c-1.9.059-3.333-.191-5.063.4-4.635,1.594-4.728,6.781-1.877,8.81M82.23,3.2H80.689V1.659H82.23ZM66.288,4.717h1.59V19.152h-1.3L56.333,6.168l.906,2.1v10.88H55.648V4.717h1.529l9.781,12.418-.67-1.771V4.717M6.22,19.255,0,4.717H1.819L7.37,18.136,7.213,16.55,12.129,4.717h1.755L7.666,19.255ZM33.778,4.717H35.41V19.151H33.778Zm17.5,7.258a5.674,5.674,0,0,1-5.66,5.918,5.744,5.744,0,0,1-5.7-5.959v-.042A5.675,5.675,0,0,1,45.58,5.976a5.743,5.743,0,0,1,5.7,5.959ZM45.622,4.47a7.32,7.32,0,0,0-7.4,7.465v.041a7.376,7.376,0,1,0,14.751-.041v-.042A7.251,7.251,0,0,0,45.622,4.47M31.085,15.234v.041c0,2.474-2.066,4.083-4.938,4.083a8.468,8.468,0,0,1-5.908-2.31l1.012-1.2a6.9,6.9,0,0,0,4.959,2.04c1.942,0,3.222-1.03,3.222-2.453V15.4c0-4.029-8.615-1.371-8.615-6.908V8.45c0-2.268,2-3.939,4.752-3.939a7.553,7.553,0,0,1,5.082,1.774L29.7,7.542C26.423,4.875,22.45,5.9,22.45,8.306v.041c0,1.361.743,2.123,3.926,2.8,3.223.7,4.71,1.877,4.71,4.083M17.733,19.152H16.1V4.718h1.632Zm94.987,1.623h1.541v1.537H112.72Zm-3.081,0h1.541v1.537h-1.541ZM12.916,56.333h13.39v6.661H.319V56.885C13.3,45.865,18.079,43.712,18.079,38.91c0-2.954-1.957-4.557-4.716-4.557-2.709,0-4.566,1.5-7.174,4.706L.771,34.7C4.232,30,7.594,27.443,13.865,27.443c7.274,0,12.09,4.256,12.09,10.816v.1c0,8.225-6.227,10.877-16.905,19.482L7.559,58.989ZM128.894,45.569c0,6.008-4.314,10.915-10.536,10.915s-10.635-5.007-10.635-11.016v-.1c0-6.008,4.315-10.915,10.535-10.915s10.636,5.007,10.636,11.015ZM118.359,27.344c-10.835,0-18.712,8.161-18.712,18.125v.1c0,9.964,7.775,18.025,18.612,18.025s18.712-8.162,18.712-18.126v-.1c0-9.964-7.776-18.025-18.612-18.025" transform="translate(0)" fill="#fff"/>
    <path id="Path_61669" data-name="Path 61669" d="M67.753,36.272l1.779,1.7L67.825,39.75l-1.778-1.7" transform="translate(-20.456 -11.234)" fill="#fff"/>
    <path id="Path_61670" data-name="Path 61670" d="M74.416,38.046l1.777,1.7L77.9,37.975l-1.778-1.7" transform="translate(-23.048 -11.234)" fill="#fff"/>
    <path id="Path_61671" data-name="Path 61671" d="M70.788,41.464l1.385,1.326L73.5,41.408l-1.384-1.326" transform="translate(-21.924 -12.414)" fill="#fff"/>
    <path id="Path_61672" data-name="Path 61672" d="M78.143,42.563l1.385,1.327,1.328-1.382-1.385-1.327" transform="translate(-24.202 -12.754)" fill="#fff"/>
    <path id="Path_61673" data-name="Path 61673" d="M67.508,44.525l1.385,1.327,1.328-1.382-1.383-1.327" transform="translate(-20.908 -13.362)" fill="#fff"/>
    <path id="Path_61674" data-name="Path 61674" d="M74.239,44.758l1.384,1.327L76.952,44.7l-1.385-1.327" transform="translate(-22.993 -13.434)" fill="#fff"/>
    <path id="Path_61675" data-name="Path 61675" d="M71.606,47.244l.974.933.935-.973-.974-.933" transform="translate(-22.177 -14.331)" fill="#fff"/>
    <path id="Path_61676" data-name="Path 61676" d="M76.929,48.306l.974.933.935-.973-.974-.933" transform="translate(-23.826 -14.66)" fill="#fff"/>
    <rect id="Rectangle_3583" data-name="Rectangle 3583" width="3.072" height="3.066" transform="translate(61.127 26.251) rotate(-10.396)" fill="#fff"/>
    <rect id="Rectangle_3584" data-name="Rectangle 3584" width="2.465" height="2.46" transform="matrix(0.984, -0.18, 0.18, 0.984, 57.184, 27.515)" fill="#fff"/>
    <rect id="Rectangle_3585" data-name="Rectangle 3585" width="2.464" height="2.461" transform="translate(61.87 30.887) rotate(-10.394)" fill="#fff"/>
    <rect id="Rectangle_3586" data-name="Rectangle 3586" width="1.919" height="1.915" transform="matrix(0.984, -0.18, 0.18, 0.984, 58.527, 31.241)" fill="#fff"/>
    <rect id="Rectangle_3587" data-name="Rectangle 3587" width="1.919" height="1.916" transform="matrix(0.984, -0.18, 0.18, 0.984, 62.199, 34.82)" fill="#fff"/>
    <rect id="Rectangle_3588" data-name="Rectangle 3588" width="1.92" height="1.916" transform="translate(55.699 32.007) rotate(-10.38)" fill="#fff"/>
    <rect id="Rectangle_3589" data-name="Rectangle 3589" width="1.919" height="1.916" transform="matrix(0.984, -0.18, 0.18, 0.984, 59.125, 34.475)" fill="#fff"/>
    <rect id="Rectangle_3590" data-name="Rectangle 3590" width="1.35" height="1.347" transform="translate(56.719 34.703) rotate(-10.396)" fill="#fff"/>
    <rect id="Rectangle_3591" data-name="Rectangle 3591" width="1.349" height="1.347" transform="translate(59.27 37.443) rotate(-10.373)" fill="#fff"/>
    <path id="Path_61677" data-name="Path 61677" d="M100.98,52.342,99.66,55.111l2.775,1.317,1.319-2.769" transform="translate(-30.866 -16.211)" fill="#fff"/>
    <path id="Path_61678" data-name="Path 61678" d="M95.393,50.489,94.334,52.71l2.225,1.057,1.059-2.221" transform="translate(-29.217 -15.637)" fill="#fff"/>
    <path id="Path_61679" data-name="Path 61679" d="M98.031,58.416l-1.059,2.222L99.2,61.694l1.059-2.221" transform="translate(-30.034 -18.092)" fill="#fff"/>
    <path id="Path_61680" data-name="Path 61680" d="M93.911,56l-.824,1.73,1.733.823.825-1.73" transform="translate(-28.83 -17.345)" fill="#fff"/>
    <path id="Path_61681" data-name="Path 61681" d="M95.186,63.315l-.825,1.73,1.733.823.826-1.73" transform="translate(-29.225 -19.61)" fill="#fff"/>
    <path id="Path_61682" data-name="Path 61682" d="M89.937,54.51l-.825,1.73,1.733.823.825-1.73" transform="translate(-27.599 -16.882)" fill="#fff"/>
    <path id="Path_61683" data-name="Path 61683" d="M91.868,60.308l-.825,1.73,1.733.823.826-1.73" transform="translate(-28.197 -18.678)" fill="#fff"/>
    <path id="Path_61684" data-name="Path 61684" d="M88.957,58.541l-.581,1.217,1.219.578.581-1.216" transform="translate(-27.372 -18.131)" fill="#fff"/>
    <rect id="Rectangle_3592" data-name="Rectangle 3592" width="1.348" height="1.349" transform="translate(61.466 45.333) rotate(-64.551)" fill="#fff"/>
    <path id="Path_61685" data-name="Path 61685" d="M102.529,71.551l-2.693,1.474,1.478,2.689,2.693-1.474" transform="translate(-30.921 -22.16)" fill="#fff"/>
    <path id="Path_61686" data-name="Path 61686" d="M99.229,66.717,97.069,67.9l1.185,2.156,2.161-1.183" transform="translate(-30.064 -20.663)" fill="#fff"/>
    <path id="Path_61687" data-name="Path 61687" d="M96.722,74.686l-2.161,1.183,1.186,2.157,2.161-1.183" transform="translate(-29.287 -23.131)" fill="#fff"/>
    <path id="Path_61688" data-name="Path 61688" d="M94.925,70.261l-1.682.922.922,1.679,1.684-.921" transform="translate(-28.879 -21.761)" fill="#fff"/>
    <path id="Path_61689" data-name="Path 61689" d="M91.672,76.936l-1.683.922.923,1.679,1.683-.921" transform="translate(-27.871 -23.828)" fill="#fff"/>
    <path id="Path_61690" data-name="Path 61690" d="M92.577,66.731l-1.683.921.923,1.68L93.5,68.41" transform="translate(-28.151 -20.667)" fill="#fff"/>
    <path id="Path_61691" data-name="Path 61691" d="M90.744,72.56l-1.683.922.923,1.679,1.683-.921" transform="translate(-27.583 -22.473)" fill="#fff"/>
    <path id="Path_61692" data-name="Path 61692" d="M89.554,69.364l-1.184.648.65,1.181,1.183-.647" transform="translate(-27.369 -21.483)" fill="#fff"/>
    <path id="Path_61693" data-name="Path 61693" d="M86.945,74.114l-1.184.648.649,1.181,1.184-.647" transform="translate(-26.561 -22.954)" fill="#fff"/>
    <rect id="Rectangle_3593" data-name="Rectangle 3593" width="3.067" height="3.072" transform="translate(61.619 63.673) rotate(-82.953)" fill="#fff"/>
    <rect id="Rectangle_3594" data-name="Rectangle 3594" width="2.46" height="2.464" transform="matrix(0.123, -0.992, 0.992, 0.123, 62.277, 59.025)" fill="#fff"/>
    <rect id="Rectangle_3595" data-name="Rectangle 3595" width="2.46" height="2.465" transform="matrix(0.123, -0.992, 0.992, 0.123, 57.648, 62.475)" fill="#fff"/>
    <rect id="Rectangle_3596" data-name="Rectangle 3596" width="1.915" height="1.919" transform="translate(58.922 58.72) rotate(-82.962)" fill="#fff"/>
    <rect id="Rectangle_3597" data-name="Rectangle 3597" width="1.915" height="1.919" transform="translate(54.398 61.143) rotate(-82.962)" fill="#fff"/>
    <rect id="Rectangle_3598" data-name="Rectangle 3598" width="1.916" height="1.92" transform="translate(59.034 55.792) rotate(-82.944)" fill="#fff"/>
    <rect id="Rectangle_3599" data-name="Rectangle 3599" width="1.916" height="1.92" transform="translate(55.65 58.314) rotate(-82.942)" fill="#fff"/>
    <rect id="Rectangle_3600" data-name="Rectangle 3600" width="1.347" height="1.349" transform="matrix(0.123, -0.992, 0.992, 0.123, 56.788, 55.466)" fill="#fff"/>
    <rect id="Rectangle_3601" data-name="Rectangle 3601" width="1.347" height="1.35" transform="matrix(0.123, -0.992, 0.992, 0.123, 53.402, 57.071)" fill="#fff"/>
    <path id="Path_61694" data-name="Path 61694" d="M74.7,95.565l-2.252-2.087-2.09,2.248,2.252,2.086" transform="translate(-21.792 -28.952)" fill="#fff"/>
    <path id="Path_61695" data-name="Path 61695" d="M74.1,33.342l-2.252-2.087L69.762,33.5l2.252,2.086" transform="translate(-21.606 -9.68)" fill="#fff"/>
    <path id="Path_61696" data-name="Path 61696" d="M78.571,90.874,76.764,89.2,75.088,91l1.806,1.673" transform="translate(-23.256 -27.626)" fill="#fff"/>
    <path id="Path_61697" data-name="Path 61697" d="M70.2,91.013,68.4,89.339l-1.677,1.8,1.806,1.673" transform="translate(-20.664 -27.67)" fill="#fff"/>
    <path id="Path_61698" data-name="Path 61698" d="M74.121,87.878l-1.407-1.3-1.305,1.4,1.406,1.3" transform="translate(-22.116 -26.813)" fill="#fff"/>
    <path id="Path_61699" data-name="Path 61699" d="M66.749,86.9l-1.406-1.3L64.038,87l1.407,1.3" transform="translate(-19.833 -26.511)" fill="#fff"/>
    <path id="Path_61700" data-name="Path 61700" d="M76.738,84.541l-1.407-1.3-1.305,1.4,1.406,1.3" transform="translate(-22.927 -25.78)" fill="#fff"/>
    <path id="Path_61701" data-name="Path 61701" d="M70.617,84.642l-1.407-1.3-1.305,1.4,1.406,1.3" transform="translate(-21.031 -25.811)" fill="#fff"/>
    <path id="Path_61702" data-name="Path 61702" d="M73.571,82.469l-.989-.917-.918.988.989.917" transform="translate(-22.195 -25.258)" fill="#fff"/>
    <path id="Path_61703" data-name="Path 61703" d="M68.232,81.5l-.989-.917-.919.987.989.917" transform="translate(-20.541 -24.956)" fill="#fff"/>
    <rect id="Rectangle_3602" data-name="Rectangle 3602" width="3.072" height="3.066" transform="translate(36.174 61.662) rotate(-11.338)" fill="#fff"/>
    <rect id="Rectangle_3603" data-name="Rectangle 3603" width="2.464" height="2.461" transform="translate(40.81 60.808) rotate(-11.341)" fill="#fff"/>
    <rect id="Rectangle_3604" data-name="Rectangle 3604" width="2.464" height="2.46" transform="translate(36.072 57.512) rotate(-11.341)" fill="#fff"/>
    <rect id="Rectangle_3605" data-name="Rectangle 3605" width="1.919" height="1.916" transform="matrix(0.981, -0.196, 0.196, 0.981, 40.048, 57.532)" fill="#fff"/>
    <rect id="Rectangle_3606" data-name="Rectangle 3606" width="1.919" height="1.916" transform="translate(42.862 56.719) rotate(-11.326)" fill="#fff"/>
    <rect id="Rectangle_3607" data-name="Rectangle 3607" width="1.919" height="1.916" transform="matrix(0.981, -0.196, 0.196, 0.981, 39.395, 54.308)" fill="#fff"/>
    <rect id="Rectangle_3608" data-name="Rectangle 3608" width="1.35" height="1.347" transform="translate(42.466 54.489) rotate(-11.321)" fill="#fff"/>
    <rect id="Rectangle_3609" data-name="Rectangle 3609" width="1.35" height="1.348" transform="translate(39.871 51.79) rotate(-11.356)" fill="#fff"/>
    <path id="Path_61704" data-name="Path 61704" d="M43.134,76.892l1.274-2.79-2.8-1.272-1.274,2.79" transform="translate(-12.493 -22.557)" fill="#fff"/>
    <path id="Path_61705" data-name="Path 61705" d="M49.116,79.012l1.022-2.239L47.9,75.754l-1.022,2.239" transform="translate(-14.517 -23.462)" fill="#fff"/>
    <path id="Path_61706" data-name="Path 61706" d="M46.345,71.129l1.022-2.239-2.243-1.02L44.1,70.11" transform="translate(-13.659 -21.021)" fill="#fff"/>
    <rect id="Rectangle_3610" data-name="Rectangle 3610" width="1.916" height="1.918" transform="translate(33.883 50.935) rotate(-65.484)" fill="#fff"/>
    <path id="Path_61707" data-name="Path 61707" d="M54.219,80.11l.8-1.743-1.746-.794-.8,1.743" transform="translate(-16.252 -24.026)" fill="#fff"/>
    <rect id="Rectangle_3611" data-name="Rectangle 3611" width="1.917" height="1.919" transform="translate(32.924 45.9) rotate(-65.484)" fill="#fff"/>
    <rect id="Rectangle_3612" data-name="Rectangle 3612" width="1.917" height="1.919" transform="translate(36.646 51.917) rotate(-65.484)" fill="#fff"/>
    <rect id="Rectangle_3613" data-name="Rectangle 3613" width="1.916" height="1.918" transform="translate(35.246 47.94) rotate(-65.457)" fill="#fff"/>
    <path id="Path_61708" data-name="Path 61708" d="M56.086,71.511l.56-1.226-1.229-.559-.56,1.227" transform="translate(-16.99 -21.595)" fill="#fff"/>
    <path id="Path_61709" data-name="Path 61709" d="M55.328,66.147l.56-1.227-1.229-.558-.56,1.227" transform="translate(-16.756 -19.934)" fill="#fff"/>
    <path id="Path_61710" data-name="Path 61710" d="M41.22,57.667l2.669-1.519-1.523-2.664L39.7,55" transform="translate(-12.295 -16.565)" fill="#fff"/>
    <path id="Path_61711" data-name="Path 61711" d="M44.975,62.814,47.116,61.6l-1.222-2.137-2.141,1.219" transform="translate(-13.551 -18.415)" fill="#fff"/>
    <path id="Path_61712" data-name="Path 61712" d="M47.35,54.8l2.141-1.218-1.222-2.138-2.141,1.219" transform="translate(-14.287 -15.934)" fill="#fff"/>
    <path id="Path_61713" data-name="Path 61713" d="M49.556,59.528l1.666-.949-.951-1.664-1.667.948" transform="translate(-15.054 -17.628)" fill="#fff"/>
    <path id="Path_61714" data-name="Path 61714" d="M52.7,52.8l1.666-.949-.951-1.664-1.667.948" transform="translate(-16.027 -15.544)" fill="#fff"/>
    <path id="Path_61715" data-name="Path 61715" d="M51.961,63.019l1.668-.948-.951-1.664-1.668.949" transform="translate(-15.799 -18.709)" fill="#fff"/>
    <path id="Path_61716" data-name="Path 61716" d="M53.7,57.161l1.667-.948-.951-1.664-1.667.949" transform="translate(-16.337 -16.895)" fill="#fff"/>
    <path id="Path_61717" data-name="Path 61717" d="M55.292,60.681l1.173-.667-.669-1.17-1.173.667" transform="translate(-16.918 -18.225)" fill="#fff"/>
    <path id="Path_61718" data-name="Path 61718" d="M57.821,55.888l1.173-.668-.669-1.17-1.173.668" transform="translate(-17.701 -16.74)" fill="#fff"/>
    <rect id="Rectangle_3614" data-name="Rectangle 3614" width="3.066" height="3.072" transform="translate(35.293 29.372) rotate(-83.901)" fill="#fff"/>
    <rect id="Rectangle_3615" data-name="Rectangle 3615" width="2.46" height="2.465" transform="matrix(0.106, -0.994, 0.994, 0.106, 35.385, 33.503)" fill="#fff"/>
    <rect id="Rectangle_3616" data-name="Rectangle 3616" width="2.46" height="2.465" transform="matrix(0.106, -0.994, 0.994, 0.106, 39.955, 29.976)" fill="#fff"/>
    <rect id="Rectangle_3617" data-name="Rectangle 3617" width="1.915" height="1.919" transform="translate(39.348 33.276) rotate(-83.876)" fill="#fff"/>
    <rect id="Rectangle_3618" data-name="Rectangle 3618" width="1.915" height="1.919" transform="translate(43.825 30.771) rotate(-83.918)" fill="#fff"/>
    <rect id="Rectangle_3619" data-name="Rectangle 3619" width="1.915" height="1.919" transform="translate(39.28 36.199) rotate(-83.876)" fill="#fff"/>
    <rect id="Rectangle_3620" data-name="Rectangle 3620" width="1.915" height="1.919" transform="translate(42.624 33.618) rotate(-83.876)" fill="#fff"/>
    <rect id="Rectangle_3621" data-name="Rectangle 3621" width="1.348" height="1.35" transform="translate(42.16 35.986) rotate(-83.884)" fill="#fff"/>
    <rect id="Rectangle_3622" data-name="Rectangle 3622" width="1.347" height="1.351" transform="translate(45.519 34.322) rotate(-83.913)" fill="#fff"/>
    <path id="Path_61719" data-name="Path 61719" d="M78.169,63.006A7.317,7.317,0,0,0,72,62.659a11.974,11.974,0,0,0-2.884,1.707,31.3,31.3,0,0,1-.15-7.793.011.011,0,0,1,.018-.008c1.158.728.833,2.763.59,3.345,0,.012.012.019.021.01a3.591,3.591,0,0,0,.442-4.061c-.054-.086.273.175.54.518a3.975,3.975,0,0,1,.655,2.692s.006,0,.008,0a3.4,3.4,0,0,0-.924-4.187c-.063-.053.183.027.261.055a2.819,2.819,0,0,1,1.78,2.7,2.684,2.684,0,0,0-2.094-3.541,2.675,2.675,0,0,1,1.882.376c.513.346.647.764.634.647a2.226,2.226,0,0,0-3.021-1.661,1.508,1.508,0,0,1,1.473-.683,1.463,1.463,0,0,1,.537.126.011.011,0,0,0,.012-.018A1.69,1.69,0,0,0,69,53a.012.012,0,0,1-.019,0,5.305,5.305,0,0,1-.575-1.635,7.336,7.336,0,0,1-.6,1.635.011.011,0,0,1-.019,0,1.688,1.688,0,0,0-2.781-.123.011.011,0,0,0,.012.018,1.721,1.721,0,0,1,2.023.539.011.011,0,0,1-.014.017,2.221,2.221,0,0,0-3.02,1.661c0,.012.016.019.022.008a1.812,1.812,0,0,1,.4-.494,2.6,2.6,0,0,1,2.092-.537,2.765,2.765,0,0,0-2.092,1.673c-.34.913-.012,2.114,0,1.817a2.77,2.77,0,0,1,2.029-2.722.012.012,0,0,1,.01.02,3.311,3.311,0,0,0-.9,4.182,3.438,3.438,0,0,1,1.164-3.215c.01-.008.025,0,.018.014a3.592,3.592,0,0,0,.442,4.061c.008.01.026,0,.021-.01-.242-.582-.567-2.617.59-3.345a.011.011,0,0,1,.018.008,31.23,31.23,0,0,1-.15,7.793,8.834,8.834,0,0,0-5.963-2.218,6.954,6.954,0,0,0-3.086.857.027.027,0,0,0,.023.049c3.382-1.081,6.309.231,9.03,2.495a30.116,30.116,0,0,1-3.347,2.829.759.759,0,1,0-1.2.922c1.188,1.185,3.046-1.167,5.268-3.133,2.138,1.89,4.082,4.317,5.268,3.133a.849.849,0,0,0,.148-.654.76.76,0,0,0-1.352-.267,29.489,29.489,0,0,1-3.347-2.829c2.74-2.284,5.635-3.559,9.029-2.495a.027.027,0,0,0,.024-.049" transform="translate(-18.154 -15.904)" fill="#fff"/>
    <path id="Path_61720" data-name="Path 61720" d="M49.194,111.566h.881v-7.894h-.881Zm-23.1-.88-1.377-3.376a3.259,3.259,0,0,1,4.33,0l-1.377,3.376Zm-4.86,0a6.068,6.068,0,0,1-1.824-.137c-2.382-.752-1.735-4.064.931-4.064h.893Zm24.508,0c-1.42-.043-2.7.251-3.35-.879a24.45,24.45,0,0,0,.077-3.663H41.59v2.981c0,2.188-2.64,2.045-3.262.732-.25-.528-.1-.749-.143-3.712H37.3v3.047a1.374,1.374,0,0,1-1.488,1.5H34.108v-4.542h-.881v4.542H28.6L30.141,107a5.39,5.39,0,0,0-3.262-1.485A5.191,5.191,0,0,0,23.617,107l1.554,3.684H22.118v-5.092h-1.41c-1.994,0-3.648,1.146-3.648,3.024,0,3.343,4.1,2.931,4.177,2.948-.014.108.11.864-.4,1.243a2.48,2.48,0,0,1-1.846.22,4.3,4.3,0,0,1-.743-.264l-.275.847a4.813,4.813,0,0,0,1.686.374c1.68,0,2.457-.838,2.457-2.255v-.165c14.387-.09,13.962.207,14.838-.275a2.262,2.262,0,0,0,.81-.737,2.245,2.245,0,0,0,.87.826,3.224,3.224,0,0,0,2.662.021,1.885,1.885,0,0,0,.854-.847,2.074,2.074,0,0,0,1.929,1v.01h2.545v-7.894h-.881Zm79.1-.39a2.309,2.309,0,0,1-4.242-.028,2.415,2.415,0,0,1,0-1.787,2.307,2.307,0,0,1,4.242,1.815m-8.551,0a2.327,2.327,0,0,1-3.769.7,2.383,2.383,0,0,1,0-3.255,2.316,2.316,0,0,1,3.774,2.551m-21.439.39a5.73,5.73,0,0,1-1.8-.142c-2.321-.763-1.768-4.07.931-4.07h.871Zm33.808,0h-3.03a3.193,3.193,0,1,0-5.819,0h-2.733a3.193,3.193,0,1,0-5.818,0h-2.8v-7.014h-.881v7.014h-2.809c-.048-.9.205-2.241-.552-3.085a2.239,2.239,0,0,0-1.862-.759h-3.9l1.659-3.17h-.959l-1.693,3.159a1.619,1.619,0,0,0,.4.89c4.409.037,4.7-.092,5.218.127a1.2,1.2,0,0,1,.744.852,10.552,10.552,0,0,1,.066,1.985H95.736v-5.092H94.347c-2.336,0-3.636,1.39-3.636,2.991,0,2.007,1.614,2.981,3.636,2.981h17.488a3.221,3.221,0,0,0,4.673,0h3.879a3.222,3.222,0,0,0,4.673,0h4.485v-7.894h-.882Zm3.449.88h.882v-7.894h-.882ZM67.157,113.5h.906v-.9h-.906Zm8.619-2.817L74.4,107.31a3.259,3.259,0,0,1,4.331,0l-1.377,3.376Zm6.248,0H78.278L79.82,107a5.388,5.388,0,0,0-3.262-1.485A5.2,5.2,0,0,0,73.3,107l1.554,3.684H71.567v-5.092h-.882v6.159c0,.778-.057,1.353-.837,1.353a1.372,1.372,0,0,1-.451-.066l-.231.848a1.824,1.824,0,0,0,2.038-.5,3.422,3.422,0,0,0,.364-1.82H82.906v-7.894h-.882ZM15.1,106.364a2.969,2.969,0,0,0-2.5-.77v.879a3.147,3.147,0,0,1,1.377.137,1.306,1.306,0,0,1,.733.864,19.214,19.214,0,0,1,.072,3.211H10.646v.88h5.014c-.037-3.334.091-3.687-.138-4.432a2.022,2.022,0,0,0-.424-.77m48.836,7.149h.906v-.9h-.906Zm-5.36-2.827a5.735,5.735,0,0,1-1.8-.142c-2.324-.763-1.764-4.07.931-4.07h.871Zm9.477-5.092H67.17v5.092H63.842v-5.092H62.96v5.092h-3.5v-5.092c-1.109.035-2.763-.224-4.033.852-1.8,1.526-1.337,5.12,2.645,5.12h9.984v-5.972m-5.661,7.919H63.3v-.9H62.39ZM3.478,103.672H2.572v.9h.906v-.9m90.71,0h-.906v.9h.906Zm-34.736,0h-.906v.9h.906ZM8.678,113.513h.906v-.9H8.678Zm49.229-9.841H57v.9h.906Zm-52.885,0H4.116v.9h.906Zm2.112,9.841H8.04v-.9H7.134Zm-2.99-2.827a5.729,5.729,0,0,1-1.8-.142c-2.32-.761-1.772-4.07.931-4.07h.87Zm5.268-5.092H8.531v5.092h-3.5v-5.092a9.3,9.3,0,0,0-2.887.225A3.058,3.058,0,0,0,.26,107.4,3.008,3.008,0,0,0,.3,109.927a3.55,3.55,0,0,0,3.338,1.639H9.412v-5.972m76.061,5.972h.881v-7.894h-.881Zm10.258-7.894h-.906v.9h.906Z" transform="translate(0 -32.109)" fill="#fff"/>
    <path id="Path_61721" data-name="Path 61721" d="M1.252,123.484H2.358v3.16l3-3.16H6.712l-2.618,2.7,2.734,3.582H5.489l-2.15-2.828-.981,1.006v1.822H1.252" transform="translate(-0.388 -38.245)" fill="#fff"/>
    <rect id="Rectangle_3623" data-name="Rectangle 3623" width="1.107" height="6.284" transform="translate(7.45 85.239)" fill="#fff"/>
    <path id="Path_61722" data-name="Path 61722" d="M14.864,123.484h1.026l3.373,4.345v-4.345h1.088v6.284h-.926L15.952,125.3v4.471H14.864" transform="translate(-4.604 -38.245)" fill="#fff"/>
    <path id="Path_61723" data-name="Path 61723" d="M24.8,126.6v-.018a3.205,3.205,0,0,1,3.247-3.251,3.406,3.406,0,0,1,2.42.853l-.7.835c-1.705-1.448-3.8-.405-3.8,1.544v.018a2.1,2.1,0,0,0,2.14,2.244,2.574,2.574,0,0,0,1.521-.476V127.17h-1.61v-.96H30.69v2.639c-2.252,1.924-5.892.935-5.892-2.253" transform="translate(-7.68 -38.196)" fill="#fff"/>
    <path id="Path_61724" data-name="Path 61724" d="M37.9,128.763a2.137,2.137,0,1,0,0-4.274H36.655v4.274Zm-2.348-5.279H37.9a3.148,3.148,0,1,1,0,6.284H35.548Z" transform="translate(-11.01 -38.245)" fill="#fff"/>
    <path id="Path_61725" data-name="Path 61725" d="M50.722,126.6v-.018a2.155,2.155,0,0,0-2.141-2.235,2.125,2.125,0,0,0-2.123,2.217v.018a2.155,2.155,0,0,0,2.141,2.236,2.126,2.126,0,0,0,2.123-2.218m-5.424,0v-.018a3.293,3.293,0,0,1,6.585-.018v.018a3.293,3.293,0,0,1-6.585.018" transform="translate(-14.03 -38.196)" fill="#fff"/>
    <path id="Path_61726" data-name="Path 61726" d="M56.828,123.484h1.178l1.916,2.972,1.916-2.972h1.178v6.284H61.91v-4.507l-1.987,2.963h-.036l-1.97-2.945v4.489H56.828" transform="translate(-17.6 -38.245)" fill="#fff"/>
    <path id="Path_61727" data-name="Path 61727" d="M77.073,126.6v-.018a2.155,2.155,0,0,0-2.141-2.235,2.125,2.125,0,0,0-2.123,2.217v.018a2.155,2.155,0,0,0,2.141,2.236,2.126,2.126,0,0,0,2.123-2.218m-5.424,0v-.018a3.293,3.293,0,0,1,6.585-.018v.018a3.293,3.293,0,0,1-6.585.018" transform="translate(-22.191 -38.196)" fill="#fff"/>
    <path id="Path_61728" data-name="Path 61728" d="M83.18,123.484h4.686v1.006h-3.58V126.2h3.175v1.005H84.286v2.559H83.18" transform="translate(-25.762 -38.245)" fill="#fff"/>
    <path id="Path_61729" data-name="Path 61729" d="M95.028,128.812l.665-.79a2.9,2.9,0,0,0,1.988.817c.683,0,1.116-.314,1.116-.79v-.017c0-1.4-3.518-.446-3.518-2.838v-.018c0-1.929,2.7-2.421,4.435-1.032l-.594.835c-1.448-1.078-2.734-.654-2.734.1v.018c0,1.384,3.517.509,3.517,2.827v.018c0,2.2-3.124,2.43-4.875.871" transform="translate(-29.432 -38.203)" fill="#fff"/>
    <path id="Path_61730" data-name="Path 61730" d="M107.343,127.253l-1.089-2.514-1.08,2.514Zm-1.584-3.834h1.025l2.771,6.329h-1.169l-.639-1.517H104.77l-.647,1.517h-1.134Z" transform="translate(-31.897 -38.225)" fill="#fff"/>
    <path id="Path_61731" data-name="Path 61731" d="M113.445,127.1v-3.618h1.107v3.574c0,1.167.6,1.8,1.592,1.8s1.584-.592,1.584-1.751v-3.618h1.107v3.565a2.512,2.512,0,0,1-2.708,2.819,2.48,2.48,0,0,1-2.68-2.765" transform="translate(-35.136 -38.245)" fill="#fff"/>
    <path id="Path_61732" data-name="Path 61732" d="M125.945,128.763a2.137,2.137,0,1,0,0-4.274H124.7v4.274Zm-2.348-5.279h2.348a3.148,3.148,0,1,1,0,6.284H123.6Z" transform="translate(-38.28 -38.245)" fill="#fff"/>
    <rect id="Rectangle_3624" data-name="Rectangle 3624" width="1.107" height="6.284" transform="translate(92.413 85.239)" fill="#fff"/>
    <path id="Path_61733" data-name="Path 61733" d="M145.4,127.253l-1.089-2.514-1.08,2.514Zm-1.584-3.834h1.025l2.771,6.329h-1.169l-.639-1.517h-2.978l-.647,1.517h-1.134Z" transform="translate(-43.684 -38.225)" fill="#fff"/>
    <path id="Path_61734" data-name="Path 61734" d="M154.8,126.6c.792,0,1.3-.413,1.3-1.051v-.018c0-.673-.486-1.042-1.3-1.042h-1.61v2.11H154.8m-2.725-3.115h2.806c1.331,0,2.339.669,2.339,1.984a1.885,1.885,0,0,1-1.5,1.922l1.7,2.379h-1.3l-1.547-2.191H153.18v2.191h-1.107Z" transform="translate(-47.099 -38.245)" fill="#fff"/>
    <path id="Path_61735" data-name="Path 61735" d="M165.346,127.253l-1.089-2.514-1.08,2.514Zm-1.584-3.834h1.026l2.77,6.329h-1.169l-.639-1.517h-2.978l-.647,1.517h-1.134Z" transform="translate(-49.862 -38.225)" fill="#fff"/>
    <path id="Path_61736" data-name="Path 61736" d="M174.942,128.79c.756,0,1.214-.3,1.214-.862v-.018c0-.529-.422-.844-1.295-.844h-1.754v1.724Zm-.324-2.658c.71,0,1.187-.278,1.187-.853v-.018c0-.494-.4-.8-1.107-.8h-1.592v1.67Zm-2.6-2.649h2.825c1.107,0,2.069.518,2.069,1.6a1.481,1.481,0,0,1-.9,1.419,1.541,1.541,0,0,1,1.25,1.526v.018c0,1.122-.926,1.724-2.33,1.724h-2.914Z" transform="translate(-53.277 -38.245)" fill="#fff"/>
    <rect id="Rectangle_3625" data-name="Rectangle 3625" width="1.107" height="6.284" transform="translate(125.356 85.239)" fill="#fff"/>
    <path id="Path_61737" data-name="Path 61737" d="M189.088,127.253,188,124.739l-1.08,2.514Zm-1.584-3.834h1.025l2.771,6.329h-1.169l-.639-1.517h-2.978l-.647,1.517h-1.134Z" transform="translate(-57.215 -38.225)" fill="#fff"/>
  </g>
</svg>
